<?xml version="1.0" standalone="no"?>
<!DOCTYPE svg PUBLIC "-//W3C//DTD SVG 20010904//EN"
 "http://www.w3.org/TR/2001/REC-SVG-20010904/DTD/svg10.dtd">
<svg version="1.0" xmlns="http://www.w3.org/2000/svg"
 width="712.000000pt" height="798.000000pt" viewBox="0 0 712.000000 798.000000"
 preserveAspectRatio="xMidYMid meet">

  <g id="" transform="translate(0.000000,798.000000) scale(0.100000,-0.100000)"
  fill="#000000" stroke="none">
    <path d="M276 7966 c-57 -22 -104 -72 -121 -131 -10 -35 -17 -163 -25 -425
-19 -683 -50 -1720 -60 -2050 -10 -339 -36 -1239 -45 -1610 -3 -118 -10 -276
-16 -350 -12 -167 -11 -201 12 -425 21 -200 38 -301 75 -450 183 -732 622
-1367 1264 -1830 370 -267 781 -457 1245 -575 816 -208 1721 -138 2479 191
107 47 344 167 404 205 29 19 54 34 57 34 14 0 239 160 360 256 554 440 948
1041 1114 1701 32 127 65 310 76 423 3 36 11 100 17 143 7 55 7 157 -1 355
-12 309 -12 308 -46 1512 -13 476 -27 921 -30 990 -3 69 -14 442 -25 830 -32
1171 -25 1088 -94 1156 -64 65 -157 80 -235 39 -15 -7 -149 -116 -297 -240
-148 -125 -302 -254 -343 -288 -40 -34 -119 -100 -175 -147 -55 -47 -115 -97
-132 -110 -29 -23 -220 -184 -679 -570 -208 -175 -315 -263 -332 -274 -7 -4
-59 6 -115 23 -370 106 -710 147 -1141 138 -362 -8 -614 -44 -949 -137 -60
-17 -115 -27 -121 -23 -11 7 -335 277 -707 590 -91 76 -372 311 -625 523 -253
211 -490 410 -527 442 -37 31 -82 65 -98 73 -45 23 -118 28 -164 11z"/>
  </g>

</svg>
